<mxfile host="app.diagrams.net" modified="2022-10-15T21:30:01.417Z" agent="5.0 (Macintosh; Intel Mac OS X 10_15_7) AppleWebKit/605.1.15 (KHTML, like Gecko) Version/16.0 Safari/605.1.15" etag="0h1yB1bBdmjy8p2wxf9p" version="20.4.1" type="github">
  <diagram id="sLfjdKfzsrojfRRoex2J" name="Page-1">
    <mxGraphModel dx="1615" dy="538" grid="1" gridSize="10" guides="1" tooltips="1" connect="1" arrows="1" fold="1" page="1" pageScale="1" pageWidth="827" pageHeight="1169" math="0" shadow="0">
      <root>
        <mxCell id="0" />
        <mxCell id="1" parent="0" />
        <mxCell id="UNbvl4Z_Z1AyvjZRaRcP-1" value="" style="rounded=0;whiteSpace=wrap;html=1;" parent="1" vertex="1">
          <mxGeometry x="170" y="80" width="620" height="930" as="geometry" />
        </mxCell>
        <mxCell id="UNbvl4Z_Z1AyvjZRaRcP-27" style="edgeStyle=orthogonalEdgeStyle;rounded=0;orthogonalLoop=1;jettySize=auto;html=1;" parent="1" source="UNbvl4Z_Z1AyvjZRaRcP-4" target="UNbvl4Z_Z1AyvjZRaRcP-25" edge="1">
          <mxGeometry relative="1" as="geometry" />
        </mxCell>
        <mxCell id="UNbvl4Z_Z1AyvjZRaRcP-4" value="Client" style="shape=umlActor;verticalLabelPosition=bottom;verticalAlign=top;html=1;outlineConnect=0;" parent="1" vertex="1">
          <mxGeometry x="-50" y="140" width="30" height="60" as="geometry" />
        </mxCell>
        <mxCell id="UNbvl4Z_Z1AyvjZRaRcP-5" value="Agent top crédit" style="shape=umlActor;verticalLabelPosition=bottom;verticalAlign=top;html=1;outlineConnect=0;" parent="1" vertex="1">
          <mxGeometry x="870" y="210" width="30" height="60" as="geometry" />
        </mxCell>
        <mxCell id="UNbvl4Z_Z1AyvjZRaRcP-6" value="Directeur" style="shape=umlActor;verticalLabelPosition=bottom;verticalAlign=top;html=1;outlineConnect=0;" parent="1" vertex="1">
          <mxGeometry x="870" y="870" width="30" height="60" as="geometry" />
        </mxCell>
        <mxCell id="UNbvl4Z_Z1AyvjZRaRcP-39" style="edgeStyle=orthogonalEdgeStyle;rounded=0;orthogonalLoop=1;jettySize=auto;html=1;entryX=0.5;entryY=1;entryDx=0;entryDy=0;" parent="1" source="UNbvl4Z_Z1AyvjZRaRcP-12" target="UNbvl4Z_Z1AyvjZRaRcP-23" edge="1">
          <mxGeometry relative="1" as="geometry" />
        </mxCell>
        <mxCell id="UNbvl4Z_Z1AyvjZRaRcP-12" value="Faire parvenir devis&amp;nbsp;" style="ellipse;whiteSpace=wrap;html=1;" parent="1" vertex="1">
          <mxGeometry x="335" y="570" width="120" height="80" as="geometry" />
        </mxCell>
        <mxCell id="UNbvl4Z_Z1AyvjZRaRcP-13" value="S&#39;identifier" style="ellipse;whiteSpace=wrap;html=1;" parent="1" vertex="1">
          <mxGeometry x="380" y="780" width="120" height="80" as="geometry" />
        </mxCell>
        <mxCell id="UNbvl4Z_Z1AyvjZRaRcP-48" style="edgeStyle=orthogonalEdgeStyle;rounded=0;orthogonalLoop=1;jettySize=auto;html=1;entryX=0.5;entryY=1;entryDx=0;entryDy=0;" parent="1" source="UNbvl4Z_Z1AyvjZRaRcP-16" target="UNbvl4Z_Z1AyvjZRaRcP-21" edge="1">
          <mxGeometry relative="1" as="geometry" />
        </mxCell>
        <mxCell id="UNbvl4Z_Z1AyvjZRaRcP-50" value="Extends" style="edgeLabel;html=1;align=center;verticalAlign=middle;resizable=0;points=[];" parent="UNbvl4Z_Z1AyvjZRaRcP-48" vertex="1" connectable="0">
          <mxGeometry x="0.2247" y="1" relative="1" as="geometry">
            <mxPoint as="offset" />
          </mxGeometry>
        </mxCell>
        <mxCell id="UNbvl4Z_Z1AyvjZRaRcP-16" value="Refuser la demande" style="ellipse;whiteSpace=wrap;html=1;" parent="1" vertex="1">
          <mxGeometry x="660" y="630" width="120" height="80" as="geometry" />
        </mxCell>
        <mxCell id="UNbvl4Z_Z1AyvjZRaRcP-38" style="edgeStyle=orthogonalEdgeStyle;rounded=0;orthogonalLoop=1;jettySize=auto;html=1;" parent="1" source="UNbvl4Z_Z1AyvjZRaRcP-17" target="UNbvl4Z_Z1AyvjZRaRcP-23" edge="1">
          <mxGeometry relative="1" as="geometry" />
        </mxCell>
        <mxCell id="UNbvl4Z_Z1AyvjZRaRcP-40" value="Extends" style="edgeLabel;html=1;align=center;verticalAlign=middle;resizable=0;points=[];" parent="UNbvl4Z_Z1AyvjZRaRcP-38" vertex="1" connectable="0">
          <mxGeometry x="0.6602" relative="1" as="geometry">
            <mxPoint as="offset" />
          </mxGeometry>
        </mxCell>
        <mxCell id="UNbvl4Z_Z1AyvjZRaRcP-17" value="Faire parvenir plan" style="ellipse;whiteSpace=wrap;html=1;" parent="1" vertex="1">
          <mxGeometry x="185" y="570" width="120" height="80" as="geometry" />
        </mxCell>
        <mxCell id="UNbvl4Z_Z1AyvjZRaRcP-19" value="Complète demande de prêt du client" style="ellipse;whiteSpace=wrap;html=1;" parent="1" vertex="1">
          <mxGeometry x="600" y="400" width="120" height="80" as="geometry" />
        </mxCell>
        <mxCell id="UNbvl4Z_Z1AyvjZRaRcP-21" value="Complète situation du client" style="ellipse;whiteSpace=wrap;html=1;" parent="1" vertex="1">
          <mxGeometry x="660" y="505" width="120" height="80" as="geometry" />
        </mxCell>
        <mxCell id="UNbvl4Z_Z1AyvjZRaRcP-52" style="edgeStyle=orthogonalEdgeStyle;rounded=0;orthogonalLoop=1;jettySize=auto;html=1;entryX=0.5;entryY=1;entryDx=0;entryDy=0;" parent="1" source="UNbvl4Z_Z1AyvjZRaRcP-22" target="UNbvl4Z_Z1AyvjZRaRcP-16" edge="1">
          <mxGeometry relative="1" as="geometry" />
        </mxCell>
        <mxCell id="UNbvl4Z_Z1AyvjZRaRcP-53" value="Extends" style="edgeLabel;html=1;align=center;verticalAlign=middle;resizable=0;points=[];" parent="UNbvl4Z_Z1AyvjZRaRcP-52" vertex="1" connectable="0">
          <mxGeometry x="0.2067" relative="1" as="geometry">
            <mxPoint as="offset" />
          </mxGeometry>
        </mxCell>
        <mxCell id="UNbvl4Z_Z1AyvjZRaRcP-22" value="Examine les dossiers de prêt" style="ellipse;whiteSpace=wrap;html=1;" parent="1" vertex="1">
          <mxGeometry x="660" y="810" width="120" height="80" as="geometry" />
        </mxCell>
        <mxCell id="UNbvl4Z_Z1AyvjZRaRcP-58" style="edgeStyle=orthogonalEdgeStyle;rounded=0;orthogonalLoop=1;jettySize=auto;html=1;entryX=0.167;entryY=0.75;entryDx=0;entryDy=0;entryPerimeter=0;" parent="1" source="UNbvl4Z_Z1AyvjZRaRcP-23" target="UNbvl4Z_Z1AyvjZRaRcP-41" edge="1">
          <mxGeometry relative="1" as="geometry">
            <Array as="points">
              <mxPoint x="450" y="450" />
            </Array>
          </mxGeometry>
        </mxCell>
        <mxCell id="UNbvl4Z_Z1AyvjZRaRcP-23" value="Demande complète de prêt&amp;nbsp;" style="ellipse;whiteSpace=wrap;html=1;" parent="1" vertex="1">
          <mxGeometry x="260" y="410" width="120" height="80" as="geometry" />
        </mxCell>
        <mxCell id="UNbvl4Z_Z1AyvjZRaRcP-24" value="Calcul de mensualité&amp;nbsp;" style="ellipse;whiteSpace=wrap;html=1;" parent="1" vertex="1">
          <mxGeometry x="390" y="190" width="120" height="80" as="geometry" />
        </mxCell>
        <mxCell id="UNbvl4Z_Z1AyvjZRaRcP-25" value="Simulation de prêt&amp;nbsp;" style="ellipse;whiteSpace=wrap;html=1;" parent="1" vertex="1">
          <mxGeometry x="230" y="130" width="120" height="80" as="geometry" />
        </mxCell>
        <mxCell id="UNbvl4Z_Z1AyvjZRaRcP-26" value="Introduire données" style="ellipse;whiteSpace=wrap;html=1;" parent="1" vertex="1">
          <mxGeometry x="210" y="260" width="120" height="80" as="geometry" />
        </mxCell>
        <mxCell id="UNbvl4Z_Z1AyvjZRaRcP-29" value="" style="endArrow=classic;html=1;rounded=0;entryX=0.5;entryY=0;entryDx=0;entryDy=0;" parent="1" source="UNbvl4Z_Z1AyvjZRaRcP-25" target="UNbvl4Z_Z1AyvjZRaRcP-26" edge="1">
          <mxGeometry width="50" height="50" relative="1" as="geometry">
            <mxPoint x="330" y="210" as="sourcePoint" />
            <mxPoint x="280" y="260" as="targetPoint" />
          </mxGeometry>
        </mxCell>
        <mxCell id="UNbvl4Z_Z1AyvjZRaRcP-30" value="Include" style="edgeLabel;html=1;align=center;verticalAlign=middle;resizable=0;points=[];" parent="UNbvl4Z_Z1AyvjZRaRcP-29" vertex="1" connectable="0">
          <mxGeometry x="0.0288" y="-1" relative="1" as="geometry">
            <mxPoint as="offset" />
          </mxGeometry>
        </mxCell>
        <mxCell id="UNbvl4Z_Z1AyvjZRaRcP-33" value="" style="endArrow=classic;html=1;rounded=0;entryX=0;entryY=0;entryDx=0;entryDy=0;" parent="1" source="UNbvl4Z_Z1AyvjZRaRcP-25" target="UNbvl4Z_Z1AyvjZRaRcP-24" edge="1">
          <mxGeometry width="50" height="50" relative="1" as="geometry">
            <mxPoint x="280" y="260" as="sourcePoint" />
            <mxPoint x="330" y="210" as="targetPoint" />
          </mxGeometry>
        </mxCell>
        <mxCell id="UNbvl4Z_Z1AyvjZRaRcP-35" value="" style="endArrow=classic;html=1;rounded=0;entryX=0.181;entryY=0.096;entryDx=0;entryDy=0;entryPerimeter=0;" parent="1" source="UNbvl4Z_Z1AyvjZRaRcP-4" target="UNbvl4Z_Z1AyvjZRaRcP-23" edge="1">
          <mxGeometry width="50" height="50" relative="1" as="geometry">
            <mxPoint x="280" y="360" as="sourcePoint" />
            <mxPoint x="330" y="310" as="targetPoint" />
          </mxGeometry>
        </mxCell>
        <mxCell id="UNbvl4Z_Z1AyvjZRaRcP-36" value="" style="endArrow=classic;html=1;rounded=0;entryX=0.75;entryY=0.875;entryDx=0;entryDy=0;entryPerimeter=0;exitX=0.547;exitY=0.004;exitDx=0;exitDy=0;exitPerimeter=0;" parent="1" source="UNbvl4Z_Z1AyvjZRaRcP-23" target="UNbvl4Z_Z1AyvjZRaRcP-26" edge="1">
          <mxGeometry width="50" height="50" relative="1" as="geometry">
            <mxPoint x="280" y="530" as="sourcePoint" />
            <mxPoint x="330" y="480" as="targetPoint" />
          </mxGeometry>
        </mxCell>
        <mxCell id="UNbvl4Z_Z1AyvjZRaRcP-37" value="Include" style="edgeLabel;html=1;align=center;verticalAlign=middle;resizable=0;points=[];" parent="UNbvl4Z_Z1AyvjZRaRcP-36" vertex="1" connectable="0">
          <mxGeometry x="0.005" y="-1" relative="1" as="geometry">
            <mxPoint as="offset" />
          </mxGeometry>
        </mxCell>
        <mxCell id="UNbvl4Z_Z1AyvjZRaRcP-41" value="Matching &amp;nbsp;simulation" style="ellipse;whiteSpace=wrap;html=1;" parent="1" vertex="1">
          <mxGeometry x="430" y="410" width="120" height="80" as="geometry" />
        </mxCell>
        <mxCell id="UNbvl4Z_Z1AyvjZRaRcP-42" value="Connexion SI organisme de crédit" style="ellipse;whiteSpace=wrap;html=1;" parent="1" vertex="1">
          <mxGeometry x="800" y="470" width="120" height="80" as="geometry" />
        </mxCell>
        <mxCell id="UNbvl4Z_Z1AyvjZRaRcP-43" value="" style="endArrow=classic;html=1;rounded=0;entryX=0.836;entryY=0.088;entryDx=0;entryDy=0;entryPerimeter=0;" parent="1" source="UNbvl4Z_Z1AyvjZRaRcP-5" target="UNbvl4Z_Z1AyvjZRaRcP-19" edge="1">
          <mxGeometry width="50" height="50" relative="1" as="geometry">
            <mxPoint x="440" y="530" as="sourcePoint" />
            <mxPoint x="490" y="480" as="targetPoint" />
          </mxGeometry>
        </mxCell>
        <mxCell id="UNbvl4Z_Z1AyvjZRaRcP-45" value="INCLUDE" style="endArrow=classic;html=1;rounded=0;exitX=0.5;exitY=1;exitDx=0;exitDy=0;" parent="1" source="UNbvl4Z_Z1AyvjZRaRcP-19" target="UNbvl4Z_Z1AyvjZRaRcP-21" edge="1">
          <mxGeometry width="50" height="50" relative="1" as="geometry">
            <mxPoint x="490" y="440" as="sourcePoint" />
            <mxPoint x="440" y="490" as="targetPoint" />
          </mxGeometry>
        </mxCell>
        <mxCell id="UNbvl4Z_Z1AyvjZRaRcP-46" value="" style="endArrow=classic;html=1;rounded=0;entryX=1;entryY=0;entryDx=0;entryDy=0;" parent="1" source="UNbvl4Z_Z1AyvjZRaRcP-5" target="UNbvl4Z_Z1AyvjZRaRcP-23" edge="1">
          <mxGeometry width="50" height="50" relative="1" as="geometry">
            <mxPoint x="440" y="490" as="sourcePoint" />
            <mxPoint x="490" y="440" as="targetPoint" />
          </mxGeometry>
        </mxCell>
        <mxCell id="UNbvl4Z_Z1AyvjZRaRcP-51" value="" style="endArrow=classic;html=1;rounded=0;entryX=0.981;entryY=0.663;entryDx=0;entryDy=0;entryPerimeter=0;" parent="1" source="UNbvl4Z_Z1AyvjZRaRcP-6" target="UNbvl4Z_Z1AyvjZRaRcP-22" edge="1">
          <mxGeometry width="50" height="50" relative="1" as="geometry">
            <mxPoint x="440" y="690" as="sourcePoint" />
            <mxPoint x="490" y="640" as="targetPoint" />
          </mxGeometry>
        </mxCell>
        <mxCell id="UNbvl4Z_Z1AyvjZRaRcP-55" value="" style="endArrow=classic;html=1;rounded=0;entryX=0.675;entryY=0.021;entryDx=0;entryDy=0;exitX=0;exitY=1;exitDx=0;exitDy=0;entryPerimeter=0;" parent="1" source="UNbvl4Z_Z1AyvjZRaRcP-19" target="UNbvl4Z_Z1AyvjZRaRcP-13" edge="1">
          <mxGeometry width="50" height="50" relative="1" as="geometry">
            <mxPoint x="440" y="600" as="sourcePoint" />
            <mxPoint x="490" y="550" as="targetPoint" />
          </mxGeometry>
        </mxCell>
        <mxCell id="UNbvl4Z_Z1AyvjZRaRcP-56" value="Include" style="edgeLabel;html=1;align=center;verticalAlign=middle;resizable=0;points=[];" parent="UNbvl4Z_Z1AyvjZRaRcP-55" vertex="1" connectable="0">
          <mxGeometry x="-0.2319" y="-2" relative="1" as="geometry">
            <mxPoint as="offset" />
          </mxGeometry>
        </mxCell>
        <mxCell id="UNbvl4Z_Z1AyvjZRaRcP-57" value="Include" style="endArrow=classic;html=1;rounded=0;entryX=0.953;entryY=0.729;entryDx=0;entryDy=0;entryPerimeter=0;" parent="1" source="UNbvl4Z_Z1AyvjZRaRcP-22" target="UNbvl4Z_Z1AyvjZRaRcP-13" edge="1">
          <mxGeometry width="50" height="50" relative="1" as="geometry">
            <mxPoint x="440" y="600" as="sourcePoint" />
            <mxPoint x="490" y="550" as="targetPoint" />
          </mxGeometry>
        </mxCell>
      </root>
    </mxGraphModel>
  </diagram>
</mxfile>
